# xmcd
#
# Track frame offsets: 
#        182
#        62430
#        74125
#        84575
#        95917
#        111332
#        121795
#        137295
#        173255
#        191750
#
# Disc length: 2819 seconds
#
# Revision: 6
# Processed by: cddbd v1.5.2PL0 Copyright (c) Steve Scherf et al.
# Submitted via: ExactAudioCopy v0.99pb5
#
DISCID=860b010a
DTITLE=Tom - Vinícius - Toquinho - Miúcha - Ao Vivo No Canecão
DYEAR=1977
DGENRE=Musica Popular Brasileira
TTITLE0=Abertura: Estamos Aí - Dia Da Criação - Tarde Em Itapuã - Gent
TTITLE0=e Humilde
TTITLE1=Carta Ao Tom - Carta Do Tom
TTITLE2=Corcovado
TTITLE3=Wave
TTITLE4=Pela Luz Dos Olhos Teus
TTITLE5=Saia Do Caminho
TTITLE6=Samba Pra Vinícius - Vai Levando
TTITLE7=Água De Beber - Garota De Ipanema - Sei Lá (A Vida Tem Sempre 
TTITLE7=Razão)
TTITLE8=Minha Namorada
TTITLE9=Chega De Saudade - Se Todos Fossem Iguais A Você - Final: Esta
TTITLE9=mos Aí
EXTD=YEAR: 1977
EXTT0=
EXTT1=
EXTT2=
EXTT3=
EXTT4=
EXTT5=
EXTT6=
EXTT7=
EXTT8=
EXTT9=
PLAYORDER=
